<?xml version="1.0" encoding="UTF-8" ?>
<!DOCTYPE svg PUBLIC "-//W3C//DTD SVG 1.1//EN" "http://www.w3.org/Graphics/SVG/1.1/DTD/svg11.dtd">
<svg width="1038pt" height="441pt" viewBox="0 0 1038 441" version="1.1" xmlns="http://www.w3.org/2000/svg">
<g id="#1f1f1fff">
</g>
<g id="#3e77afff">
<path fill="#3e77af" opacity="1.00" d=" M 843.00 80.04 C 870.90 66.35 903.11 65.72 933.51 67.58 C 956.41 69.49 979.81 74.75 998.97 88.06 C 1010.19 95.40 1018.70 106.26 1025.01 117.98 C 1033.29 132.79 1035.75 149.90 1038.00 166.48 L 1038.00 184.00 C 1003.97 183.65 969.90 184.91 935.91 183.08 C 938.89 172.41 942.04 161.46 940.74 150.25 C 938.91 140.05 927.35 135.28 917.98 136.02 C 902.26 135.45 886.02 145.81 882.67 161.66 C 882.09 169.06 880.74 177.97 885.83 184.21 C 893.46 193.04 904.94 196.77 914.95 202.13 C 939.04 214.74 959.98 232.88 977.00 254.00 C 990.40 270.82 999.14 291.14 1002.74 312.31 C 1006.74 340.74 1001.41 371.97 982.16 394.17 C 964.95 413.46 940.87 425.16 916.01 431.02 C 882.98 439.83 847.63 438.70 814.90 429.14 C 795.87 423.70 777.78 414.25 763.28 400.69 C 753.19 391.35 747.35 378.68 742.76 365.98 C 786.90 363.06 831.20 367.58 875.33 364.17 C 884.02 363.07 890.55 356.25 895.58 349.62 C 902.53 338.96 904.97 324.95 900.07 312.96 C 895.67 303.29 887.25 296.07 878.23 290.81 C 859.19 280.05 838.20 272.62 820.65 259.34 C 806.34 247.73 793.95 233.25 786.78 216.14 C 781.20 201.87 778.65 186.19 781.68 171.01 C 756.29 171.03 730.90 170.75 705.52 171.32 C 699.33 203.20 692.83 235.03 686.87 266.95 C 654.14 267.03 621.42 267.05 588.70 266.94 C 593.54 234.79 601.18 203.15 606.33 171.06 C 578.94 170.96 551.55 170.93 524.16 171.08 C 517.19 202.93 511.85 235.10 504.99 266.97 C 472.21 267.02 439.43 267.06 406.65 266.93 C 410.30 247.80 415.39 228.98 419.05 209.85 C 404.76 228.09 391.63 247.20 377.99 265.92 C 319.08 268.18 260.10 266.54 201.16 266.93 C 197.05 247.09 193.43 227.12 187.80 207.64 C 182.15 227.19 177.22 246.94 172.48 266.72 C 140.31 267.28 108.14 266.95 75.97 266.95 C 90.54 201.03 104.22 134.92 119.06 69.05 C 162.55 69.10 206.05 68.65 249.55 69.32 C 260.97 133.05 272.08 196.86 284.39 260.43 C 320.67 198.33 356.84 136.14 393.00 73.97 C 394.42 71.40 396.59 68.64 399.90 69.00 C 538.26 69.00 676.64 68.96 815.00 69.04 C 811.99 82.35 809.18 95.71 806.86 109.16 C 818.09 98.57 828.67 86.54 843.00 80.04 Z" />
<path fill="#3e77af" opacity="1.00" d=" M 498.82 292.49 C 498.72 291.33 498.85 290.05 499.80 289.24 C 501.23 289.95 500.48 292.83 498.82 292.49 Z" />
<path fill="#3e77af" opacity="1.00" d=" M 582.90 291.80 C 581.40 291.01 581.30 290.12 582.61 289.11 C 583.37 289.89 583.46 290.79 582.90 291.80 Z" />
<path fill="#3e77af" opacity="1.00" d=" M 207.34 289.99 C 208.19 290.65 208.47 291.52 208.19 292.61 C 206.56 292.20 206.27 291.33 207.34 289.99 Z" />
<path fill="#3e77af" opacity="1.00" d=" M 834.03 297.14 C 834.22 296.14 834.74 295.36 835.58 294.79 C 836.35 296.44 835.84 297.23 834.03 297.14 Z" />
<path fill="#3e77af" opacity="1.00" d=" M 497.90 299.85 C 497.62 298.85 497.78 297.92 498.37 297.06 C 499.69 298.28 499.54 299.21 497.90 299.85 Z" />
<path fill="#3e77af" opacity="1.00" d=" M 208.59 298.06 C 209.19 298.92 209.36 299.85 209.10 300.85 C 207.44 300.23 207.28 299.31 208.59 298.06 Z" />
<path fill="#3e77af" opacity="1.00" d=" M 354.90 299.95 C 355.16 298.97 355.74 298.24 356.62 297.75 C 357.26 299.46 356.69 300.19 354.90 299.95 Z" />
<path fill="#3e77af" opacity="1.00" d=" M 832.11 300.14 C 832.33 299.16 832.88 298.39 833.74 297.84 C 834.45 299.52 833.90 300.29 832.11 300.14 Z" />
<path fill="#3e77af" opacity="1.00" d=" M 829.80 302.93 C 830.18 301.99 830.84 301.31 831.78 300.89 C 832.22 302.65 831.56 303.33 829.80 302.93 Z" />
<path fill="#3e77af" opacity="1.00" d=" M 157.76 306.61 C 160.27 306.10 162.79 305.58 165.30 305.03 C 162.80 305.61 160.26 306.08 157.76 306.61 Z" />
<path fill="#3e77af" opacity="1.00" d=" M 828.68 306.34 C 828.23 305.36 828.44 304.49 829.29 303.72 C 830.46 304.95 830.26 305.82 828.68 306.34 Z" />
<path fill="#3e77af" opacity="1.00" d=" M 398.36 305.55 L 398.73 305.26 C 399.86 305.51 402.13 306.01 403.26 306.26 C 402.37 308.09 398.15 307.99 398.36 305.55 Z" />
<path fill="#3e77af" opacity="1.00" d=" M 68.25 306.48 C 70.93 306.55 73.60 306.65 76.28 306.77 C 73.38 306.78 70.48 306.69 67.59 306.47 L 68.25 306.48 Z" />
<path fill="#3e77af" opacity="1.00" d=" M 64.97 326.98 C 67.79 327.09 73.45 327.30 76.27 327.41 C 72.56 327.80 68.86 328.27 65.16 328.74 C 65.11 328.30 65.02 327.42 64.97 326.98 Z" />
<path fill="#3e77af" opacity="1.00" d=" M 328.73 327.25 C 331.65 327.51 334.63 327.79 337.56 328.15 L 336.72 328.06 C 334.06 327.79 331.37 327.47 328.73 327.25 Z" />
<path fill="#3e77af" opacity="1.00" d=" M 395.82 330.79 C 394.32 329.98 394.23 329.08 395.55 328.08 C 396.28 328.87 396.37 329.77 395.82 330.79 Z" />
<path fill="#3e77af" opacity="1.00" d=" M 574.82 330.79 C 573.32 329.98 573.22 329.08 574.54 328.08 C 575.27 328.87 575.37 329.77 574.82 330.79 Z" />
<path fill="#3e77af" opacity="1.00" d=" M 490.82 332.67 C 490.54 331.61 490.77 330.71 491.52 329.96 C 492.69 331.25 492.46 332.15 490.82 332.67 Z" />
<path fill="#3e77af" opacity="1.00" d=" M 733.72 332.00 C 734.23 332.88 734.36 333.82 734.11 334.81 C 732.45 334.13 732.32 333.19 733.72 332.00 Z" />
<path fill="#3e77af" opacity="1.00" d=" M 394.67 337.98 C 393.28 336.76 393.41 335.82 395.09 335.17 C 395.31 336.15 395.17 337.09 394.67 337.98 Z" />
<path fill="#3e77af" opacity="1.00" d=" M 573.66 337.98 C 572.27 336.75 572.41 335.81 574.10 335.17 C 574.31 336.16 574.16 337.09 573.66 337.98 Z" />
<path fill="#3e77af" opacity="1.00" d=" M 489.87 339.85 C 489.59 338.85 489.76 337.92 490.38 337.07 C 491.68 338.31 491.51 339.24 489.87 339.85 Z" />
<path fill="#3e77af" opacity="1.00" d=" M 734.69 340.28 C 735.08 341.37 735.37 342.58 734.92 343.72 C 733.11 343.77 733.10 340.68 734.69 340.28 Z" />
<path fill="#3e77af" opacity="1.00" d=" M 392.60 344.04 L 393.05 344.10 C 408.23 346.56 423.67 346.19 439.00 346.14 C 456.18 345.94 473.42 346.48 490.54 344.70 C 490.36 345.25 489.99 346.35 489.80 346.89 C 457.57 347.08 425.34 347.03 393.11 346.94 C 392.94 345.96 392.77 345.00 392.60 344.04 Z" />
<path fill="#3e77af" opacity="1.00" d=" M 571.52 344.15 L 572.02 344.23 C 604.43 348.28 637.21 344.79 669.77 346.22 L 670.47 346.23 C 637.72 347.84 604.91 346.70 572.15 346.93 C 571.93 346.00 571.72 345.07 571.52 344.15 Z" />
<path fill="#3e77af" opacity="1.00" d=" M 219.02 344.73 C 254.52 347.45 290.18 345.27 325.75 346.25 L 326.42 346.25 C 290.65 347.85 254.81 346.69 219.01 346.93 C 219.02 346.38 219.02 345.28 219.02 344.73 Z" />
<path fill="#3e77af" opacity="1.00" d=" M 59.55 345.97 L 60.46 345.95 C 92.23 346.10 124.00 345.75 155.77 346.26 L 156.47 346.27 C 124.19 347.23 91.79 347.92 59.55 345.97 Z" />
<path fill="#3e77af" opacity="1.00" d=" M 829.41 345.87 L 830.39 345.87 C 815.31 347.50 800.13 347.01 785.00 347.06 C 768.10 346.86 751.17 347.51 734.31 346.16 C 766.01 345.79 797.71 346.17 829.41 345.87 Z" />
<path fill="#3e77af" opacity="1.00" d=" M 57.76 364.97 C 89.53 365.40 121.34 364.23 153.09 365.53 C 149.04 385.74 144.72 405.89 140.00 425.95 C 108.04 426.07 76.09 425.96 44.14 426.02 C 48.72 405.68 52.73 385.20 57.76 364.97 Z" />
<path fill="#3e77af" opacity="1.00" d=" M 222.99 365.97 C 251.75 364.42 280.66 364.28 309.40 366.21 C 297.45 386.66 283.73 406.02 270.99 425.99 C 260.37 426.01 249.75 426.01 239.14 425.94 C 232.28 406.37 228.25 385.98 222.99 365.97 Z" />
<path fill="#3e77af" opacity="1.00" d=" M 387.18 366.16 C 420.20 364.95 453.22 364.72 486.26 365.06 C 482.28 385.46 478.02 405.81 473.20 426.03 C 441.13 425.96 409.06 426.05 377.00 425.97 C 380.59 406.07 384.28 386.17 387.18 366.16 Z" />
<path fill="#3e77af" opacity="1.00" d=" M 569.79 364.97 C 602.61 365.05 635.42 364.94 668.24 365.04 C 663.91 385.36 659.51 405.68 654.82 425.93 C 621.88 426.07 588.95 426.00 556.03 425.97 C 561.15 405.76 564.71 385.19 569.79 364.97 Z" />
</g>
<g id="#fefefeff">
<path fill="#fefefe" opacity="1.00" d=" M 73.86 287.98 C 105.63 288.04 137.40 287.92 169.18 288.06 C 167.98 293.74 166.69 299.40 165.30 305.03 C 162.79 305.58 160.27 306.10 157.76 306.61 C 130.63 307.62 103.43 306.91 76.28 306.77 C 73.60 306.65 70.93 306.55 68.25 306.48 C 69.99 300.28 71.76 294.07 73.86 287.98 Z" />
<path fill="#fefefe" opacity="1.00" d=" M 206.00 288.77 C 224.64 287.50 243.33 288.08 262.00 288.00 C 295.80 288.11 329.60 287.77 363.40 288.18 C 361.36 291.50 359.53 295.08 356.62 297.75 C 355.74 298.24 355.16 298.97 354.90 299.95 C 353.84 302.42 352.26 304.63 350.83 306.90 C 303.32 307.09 255.82 307.02 208.32 306.94 C 208.52 305.42 208.90 302.37 209.10 300.85 C 209.36 299.85 209.19 298.92 208.59 298.06 C 207.96 296.32 208.08 294.42 208.19 292.61 C 208.47 291.52 208.19 290.65 207.34 289.99 C 207.00 289.68 206.33 289.07 206.00 288.77 Z" />
<path fill="#fefefe" opacity="1.00" d=" M 404.21 288.08 C 436.26 288.18 468.34 287.40 500.38 288.56 L 499.80 289.24 C 498.85 290.05 498.72 291.33 498.82 292.49 C 498.86 294.03 498.71 295.55 498.37 297.06 C 497.78 297.92 497.62 298.85 497.90 299.85 C 498.11 301.47 498.53 304.70 498.74 306.32 C 474.85 307.64 450.91 306.73 427.00 307.09 C 419.10 306.91 411.09 307.54 403.26 306.26 C 402.13 306.01 399.86 305.51 398.73 305.26 C 400.57 299.54 402.45 293.83 404.21 288.08 Z" />
<path fill="#fefefe" opacity="1.00" d=" M 582.12 288.55 C 616.18 287.40 650.28 288.19 684.35 288.08 C 682.80 294.44 680.80 300.67 678.93 306.94 C 645.85 307.05 612.78 307.02 579.71 306.97 C 580.58 301.87 581.22 296.70 582.90 291.80 C 583.46 290.79 583.37 289.89 582.61 289.11 L 582.12 288.55 Z" />
<path fill="#fefefe" opacity="1.00" d=" M 742.50 291.45 C 745.67 288.91 750.33 290.82 753.97 289.95 C 782.30 290.09 810.65 289.66 838.98 290.30 C 837.91 291.85 836.92 293.46 835.58 294.79 C 834.74 295.36 834.22 296.14 834.03 297.14 L 833.74 297.84 C 832.88 298.39 832.33 299.16 832.11 300.14 L 831.78 300.89 C 830.84 301.31 830.18 301.99 829.80 302.93 L 829.29 303.72 C 828.44 304.49 828.23 305.36 828.68 306.34 L 828.89 306.87 C 797.49 307.09 766.09 307.05 734.69 306.91 C 737.11 301.68 739.38 296.32 742.50 291.45 Z" />
<path fill="#fefefe" opacity="1.00" d=" M 76.27 327.41 C 104.59 326.37 132.94 327.26 161.27 327.04 C 159.95 333.49 158.28 339.87 156.73 346.28 L 155.77 346.26 C 124.00 345.75 92.23 346.10 60.46 345.95 C 61.93 340.18 63.49 334.45 65.16 328.74 C 68.86 328.27 72.56 327.80 76.27 327.41 Z" />
<path fill="#fefefe" opacity="1.00" d=" M 214.64 327.08 C 252.67 327.14 290.72 326.61 328.73 327.25 C 331.37 327.47 334.06 327.79 336.72 328.06 C 333.53 334.34 331.03 341.40 325.75 346.25 C 290.18 345.27 254.52 347.45 219.02 344.73 C 217.52 338.85 215.93 333.00 214.64 327.08 Z" />
<path fill="#fefefe" opacity="1.00" d=" M 395.08 327.54 C 427.70 327.01 460.46 325.89 493.02 328.15 C 492.65 328.60 491.90 329.51 491.52 329.96 C 490.77 330.71 490.54 331.61 490.82 332.67 C 490.99 334.17 490.84 335.64 490.38 337.07 C 489.76 337.92 489.59 338.85 489.87 339.85 C 490.12 341.46 490.35 343.07 490.54 344.70 C 473.42 346.48 456.18 345.94 439.00 346.14 C 423.67 346.19 408.23 346.56 393.05 344.10 C 393.55 342.05 393.96 339.97 394.67 337.98 C 395.17 337.09 395.31 336.15 395.09 335.17 C 395.08 333.66 395.33 332.20 395.82 330.79 C 396.37 329.77 396.28 328.87 395.55 328.08 L 395.08 327.54 Z" />
<path fill="#fefefe" opacity="1.00" d=" M 574.09 327.54 C 608.09 326.41 642.13 327.21 676.15 327.06 C 674.63 333.44 673.05 339.81 671.67 346.23 C 671.19 346.23 670.25 346.22 669.77 346.22 C 637.21 344.79 604.43 348.28 572.02 344.23 C 572.52 342.13 572.93 340.01 573.66 337.98 C 574.16 337.09 574.31 336.16 574.10 335.17 C 574.09 333.67 574.33 332.20 574.82 330.79 C 575.37 329.77 575.27 328.87 574.54 328.08 L 574.09 327.54 Z" />
<path fill="#fefefe" opacity="1.00" d=" M 732.13 327.14 C 762.72 326.84 793.31 327.05 823.91 327.01 C 825.41 333.39 827.39 339.63 829.41 345.87 C 797.71 346.17 766.01 345.79 734.31 346.16 C 734.47 345.55 734.77 344.33 734.92 343.72 C 735.37 342.58 735.08 341.37 734.69 340.28 C 734.16 338.51 733.88 336.65 734.11 334.81 C 734.36 333.82 734.23 332.88 733.72 332.00 C 733.08 330.41 732.62 328.76 732.13 327.14 Z" />
</g>
</svg>
