<?xml version="1.0" encoding="UTF-8" ?>
<!DOCTYPE svg PUBLIC "-//W3C//DTD SVG 1.1//EN" "http://www.w3.org/Graphics/SVG/1.1/DTD/svg11.dtd">
<svg width="1051pt" height="842pt" viewBox="0 0 1051 842" version="1.1" xmlns="http://www.w3.org/2000/svg">
<g id="#ffffffff">
<path fill="#ffffff" opacity="1.00" d=" M 512.73 0.00 L 574.34 0.00 C 639.17 5.01 702.73 25.72 757.94 60.09 C 815.63 95.88 864.23 146.32 897.43 205.57 C 926.55 260.94 943.47 322.66 946.89 385.12 C 950.23 447.61 939.85 510.92 915.84 568.77 C 882.14 646.55 823.08 712.94 750.04 755.89 C 691.18 790.71 623.39 810.29 555.02 812.12 C 482.66 814.33 409.84 796.59 346.54 761.47 C 288.33 729.34 238.26 682.63 202.16 626.80 C 158.26 559.30 135.15 478.51 136.87 398.01 C 138.03 328.10 157.79 258.63 193.45 198.49 C 228.22 139.58 278.17 89.76 337.16 55.12 C 390.46 23.65 451.04 4.82 512.73 0.00 M 752.01 252.94 C 743.29 257.30 736.75 264.68 729.87 271.36 C 731.66 262.45 733.44 253.54 735.45 244.68 C 642.38 244.62 549.31 244.64 456.24 244.66 C 436.97 277.61 417.75 310.58 398.58 343.59 C 392.90 353.04 387.77 362.86 381.73 372.07 C 373.96 329.69 366.22 287.31 358.75 244.87 C 329.71 244.35 300.66 244.83 271.62 244.61 C 261.82 288.52 252.48 332.54 243.01 376.52 C 264.42 376.47 285.83 376.69 307.24 376.39 C 310.59 363.23 314.06 350.11 317.49 336.97 C 321.29 349.94 323.47 363.31 326.29 376.50 C 365.56 376.50 404.84 376.70 444.11 376.36 C 453.29 363.85 461.98 350.95 471.69 338.85 C 468.87 351.42 466.03 363.99 463.11 376.54 C 485.13 376.53 507.15 376.56 529.17 376.55 C 533.39 355.43 537.63 334.32 541.34 313.11 C 559.65 312.75 577.97 312.97 596.29 312.99 C 592.23 334.16 587.98 355.30 584.11 376.51 C 606.11 376.52 628.10 376.62 650.10 376.43 C 654.01 355.27 658.31 334.19 662.38 313.07 C 679.33 312.79 696.29 313.04 713.25 312.87 C 712.36 316.19 711.78 319.63 712.14 323.07 C 712.80 329.65 713.83 336.28 716.32 342.44 C 719.99 351.70 726.15 359.81 733.31 366.67 C 745.27 378.49 761.53 384.03 776.06 391.86 C 781.67 394.97 787.11 398.89 790.51 404.45 C 797.89 417.04 791.50 435.46 777.91 440.78 C 774.16 442.43 770.00 441.92 766.04 442.04 C 739.76 442.81 713.47 441.73 687.18 442.33 C 689.83 451.12 694.12 459.67 700.98 465.93 C 718.36 482.33 742.69 488.73 766.00 490.08 C 785.48 490.53 805.24 487.18 823.04 479.10 C 837.36 472.37 850.08 461.07 856.25 446.28 C 863.70 427.95 862.79 406.81 855.44 388.60 C 851.27 377.95 844.51 368.54 836.76 360.22 C 824.33 346.76 809.11 335.90 792.31 328.59 C 788.58 327.01 784.89 324.87 782.64 321.39 C 777.19 312.95 780.07 300.80 787.88 294.81 C 794.00 289.70 802.51 288.64 810.13 290.17 C 814.42 291.24 818.33 294.61 819.19 299.07 C 820.10 306.59 817.89 314.00 815.37 321.00 C 838.48 321.15 861.60 321.13 884.71 321.08 C 884.20 315.40 883.88 309.70 883.16 304.04 C 881.48 288.28 875.50 272.29 863.48 261.52 C 849.78 249.23 830.91 244.84 813.02 243.45 C 792.44 242.34 770.63 243.10 752.01 252.94 M 241.22 390.70 C 240.07 394.81 238.77 398.86 237.56 402.95 C 258.62 403.71 279.78 404.03 300.82 402.91 C 304.23 399.77 303.67 394.68 305.23 390.64 C 283.89 390.67 262.55 390.40 241.22 390.70 M 330.31 390.65 C 330.81 394.90 331.29 399.16 331.96 403.39 C 363.26 403.41 394.56 403.49 425.86 403.35 C 428.91 399.23 431.96 395.10 434.60 390.69 C 399.84 390.44 365.07 390.63 330.31 390.65 M 457.82 402.99 C 479.81 404.02 501.85 403.23 523.86 403.32 C 524.52 399.11 525.15 394.89 525.63 390.66 C 504.32 390.59 483.01 390.59 461.70 390.61 C 460.25 394.68 459.14 398.87 457.82 402.99 M 578.39 403.43 C 600.38 403.43 622.38 403.39 644.37 403.49 C 645.84 399.26 647.06 394.96 648.27 390.65 C 625.72 390.56 603.17 390.59 580.63 390.63 C 579.75 394.87 579.10 399.15 578.39 403.43 M 687.06 392.11 C 685.25 395.83 683.41 399.55 681.62 403.28 C 702.36 403.43 723.09 403.49 743.83 403.38 C 746.34 399.58 748.94 395.84 751.43 392.01 C 729.97 392.03 708.51 391.91 687.06 392.11 M 236.17 417.11 C 234.34 421.10 233.45 425.41 232.43 429.65 C 253.86 429.71 275.29 429.71 296.73 429.65 C 297.74 425.31 298.90 421.01 300.05 416.71 C 278.76 416.98 257.44 416.08 236.17 417.11 M 335.15 416.70 C 336.51 421.02 337.55 425.45 339.02 429.74 C 362.64 429.64 386.27 429.66 409.90 429.74 C 412.56 425.58 414.81 421.17 417.14 416.83 C 389.81 416.55 362.48 416.74 335.15 416.70 M 456.13 416.75 C 455.57 421.07 454.68 425.37 454.68 429.75 C 475.97 429.58 497.26 429.75 518.55 429.66 C 519.32 425.38 519.88 421.07 520.42 416.76 C 498.99 416.66 477.56 416.65 456.13 416.75 M 575.13 416.74 C 574.48 421.00 573.97 425.27 573.50 429.55 C 595.50 429.85 617.51 429.64 639.52 429.64 C 640.53 425.31 641.69 421.01 642.82 416.71 C 620.26 416.68 597.69 416.65 575.13 416.74 M 680.23 416.75 C 681.04 421.01 681.49 425.33 681.90 429.65 C 703.00 429.72 724.10 429.69 745.20 429.67 C 743.75 425.46 742.27 421.23 741.80 416.77 C 721.28 416.62 700.75 416.67 680.23 416.75 M 230.46 442.33 C 227.69 455.81 224.21 469.16 221.98 482.73 C 243.24 482.67 264.50 482.85 285.77 482.67 C 288.81 469.29 291.87 455.91 294.42 442.43 C 273.10 442.00 251.78 442.20 230.46 442.33 M 340.91 442.30 C 344.23 455.79 347.16 469.42 351.63 482.59 C 358.86 483.43 366.12 482.74 373.36 482.59 C 381.62 468.95 391.02 456.04 399.14 442.32 C 379.73 442.17 360.32 442.15 340.91 442.30 M 450.67 442.41 C 448.47 455.92 445.85 469.35 443.76 482.87 C 465.14 482.65 486.54 482.83 507.93 482.70 C 511.09 469.33 513.89 455.87 516.52 442.39 C 494.57 442.09 472.62 442.06 450.67 442.41 M 571.52 442.35 C 568.49 455.77 565.91 469.29 562.61 482.65 C 584.60 482.88 606.61 482.76 628.60 482.66 C 631.83 469.25 634.58 455.73 637.61 442.28 C 615.58 442.22 593.55 442.07 571.52 442.35 M 442.44 500.71 C 423.89 504.13 409.62 523.29 412.41 542.09 C 413.32 553.63 423.87 562.56 434.97 563.93 C 449.00 566.09 464.29 560.22 472.57 548.53 C 477.05 541.92 480.03 534.05 479.74 525.98 C 479.78 518.76 476.98 511.34 471.26 506.73 C 463.42 499.96 452.30 498.56 442.44 500.71 M 599.56 500.71 C 585.12 503.50 572.67 515.31 569.88 529.87 C 567.63 539.27 569.20 550.52 576.92 557.06 C 585.21 564.65 597.58 565.69 608.07 562.92 C 624.93 559.19 637.36 542.23 636.59 525.11 C 636.21 518.49 633.89 511.66 628.73 507.25 C 620.90 500.26 609.58 498.64 599.56 500.71 M 247.57 501.36 C 235.31 521.72 223.38 542.28 211.28 562.74 C 217.82 562.88 224.36 562.82 230.90 562.91 C 232.85 560.04 234.55 557.02 236.32 554.04 C 243.30 553.83 250.28 554.03 257.27 553.85 C 258.01 556.82 258.47 559.85 259.02 562.86 C 264.76 562.89 270.49 562.90 276.23 562.88 C 272.67 542.32 268.74 521.81 264.75 501.33 C 259.02 501.31 253.30 501.27 247.57 501.36 M 295.38 501.33 C 293.18 512.38 290.83 523.41 288.66 534.47 C 287.22 540.58 287.04 547.25 289.76 553.04 C 291.82 557.86 296.48 560.93 301.21 562.72 C 311.77 566.55 324.22 564.00 332.66 556.66 C 337.51 552.17 340.32 545.88 341.72 539.51 C 344.41 526.81 346.73 514.03 349.44 501.33 C 343.46 501.28 337.48 501.31 331.51 501.32 C 329.27 512.73 327.06 524.14 324.68 535.52 C 324.12 538.58 323.26 541.73 321.09 544.07 C 318.25 547.47 313.12 548.73 309.07 546.92 C 307.16 546.12 305.78 544.11 306.03 542.01 C 306.71 528.19 311.25 514.97 313.00 501.31 C 307.13 501.32 301.25 501.28 295.38 501.33 M 358.24 501.32 C 357.07 506.85 355.97 512.40 355.03 517.99 C 361.12 518.01 367.21 517.99 373.29 518.01 C 370.21 532.95 367.30 547.93 364.20 562.88 C 370.18 562.93 376.16 562.88 382.15 562.85 C 384.79 547.85 388.13 532.98 390.83 517.99 C 397.00 518.03 403.17 517.95 409.34 518.03 C 410.64 512.48 411.77 506.88 412.95 501.30 C 394.71 501.32 376.47 501.29 358.24 501.32 M 495.45 501.32 C 491.21 521.80 487.12 542.32 483.12 562.85 C 488.91 562.93 494.72 562.87 500.52 562.82 C 502.94 552.58 504.35 542.11 507.23 531.98 C 509.94 537.27 512.86 542.46 515.38 547.85 C 519.40 547.84 523.55 548.23 527.50 547.51 C 532.03 542.22 536.48 536.84 541.61 532.11 C 540.02 542.43 537.57 552.59 535.54 562.83 C 541.54 562.99 547.54 562.84 553.54 562.85 C 557.17 542.25 561.49 521.79 565.75 501.31 C 561.21 501.60 556.62 500.65 552.11 501.47 C 548.93 501.97 546.95 504.68 544.90 506.88 C 537.62 514.73 530.52 522.74 523.31 530.65 C 518.14 521.02 513.34 511.20 508.62 501.34 C 504.22 501.30 499.83 501.31 495.45 501.32 M 648.16 501.31 C 646.95 506.86 645.74 512.41 644.67 517.98 C 650.79 518.00 656.90 517.99 663.01 518.00 C 660.36 532.99 656.79 547.80 654.46 562.84 C 660.26 562.96 666.06 562.82 671.86 562.87 C 674.93 547.92 677.76 532.91 681.03 518.00 C 687.19 517.97 693.35 518.06 699.51 517.92 C 700.51 512.38 701.72 506.87 702.83 501.35 C 684.60 501.24 666.38 501.34 648.16 501.31 M 712.29 501.33 C 708.07 521.81 703.78 542.29 700.10 562.87 C 705.91 562.93 711.72 562.87 717.53 562.85 C 721.70 542.36 725.84 521.87 729.83 501.36 C 723.98 501.27 718.13 501.31 712.29 501.33 M 737.00 501.29 C 740.62 521.71 744.43 542.10 747.69 562.57 C 753.37 563.33 759.54 562.64 765.41 562.63 C 776.96 542.20 789.11 522.08 800.23 501.41 C 793.88 501.27 787.54 501.33 781.19 501.29 C 773.66 512.86 768.04 525.55 760.60 537.16 C 758.08 525.35 756.63 513.36 754.68 501.46 C 748.78 501.24 742.89 501.33 737.00 501.29 M 808.13 501.30 C 803.85 521.78 799.58 542.27 795.92 562.88 C 810.20 562.91 824.48 562.97 838.76 562.82 C 839.60 558.05 840.49 553.28 841.33 548.51 C 832.99 548.41 824.66 548.44 816.33 548.36 C 816.86 545.23 817.42 542.11 818.05 539.00 C 825.44 539.01 832.82 538.96 840.21 538.90 C 841.06 534.14 841.95 529.38 842.82 524.63 C 835.55 524.54 828.28 524.43 821.02 524.49 C 821.36 521.51 822.01 518.59 822.60 515.66 C 830.71 515.71 838.82 515.67 846.94 515.71 C 848.03 510.92 849.02 506.10 850.04 501.30 C 836.07 501.31 822.10 501.32 808.13 501.30 Z" />
<path fill="#ffffff" opacity="1.00" d=" M 445.48 516.63 C 450.14 515.58 455.48 516.61 458.87 520.14 C 461.89 523.25 462.45 528.02 461.56 532.11 C 460.09 539.71 453.80 546.26 446.07 547.48 C 440.72 548.52 434.00 547.01 431.36 541.78 C 427.22 531.46 434.36 518.31 445.48 516.63 Z" />
<path fill="#ffffff" opacity="1.00" d=" M 602.50 516.67 C 608.19 515.37 615.36 517.53 617.67 523.32 C 622.48 535.98 609.10 550.69 596.06 547.53 C 591.76 546.77 588.21 543.34 587.31 539.07 C 584.94 529.09 592.58 518.45 602.50 516.67 Z" />
<path fill="#ffffff" opacity="1.00" d=" M 242.52 540.98 C 246.04 534.97 248.67 528.25 253.18 522.95 C 254.06 529.09 255.07 535.21 256.11 541.33 C 251.57 541.31 247.05 540.90 242.52 540.98 Z" />
</g>
<g id="#3f78b1ff">
<path fill="#3f78b1" opacity="1.00" d=" M 752.01 252.94 C 770.63 243.10 792.44 242.34 813.02 243.45 C 830.91 244.84 849.78 249.23 863.48 261.52 C 875.50 272.29 881.48 288.28 883.16 304.04 C 883.88 309.70 884.20 315.40 884.71 321.08 C 861.60 321.13 838.48 321.15 815.37 321.00 C 817.89 314.00 820.10 306.59 819.19 299.07 C 818.33 294.61 814.42 291.24 810.13 290.17 C 802.51 288.64 794.00 289.70 787.88 294.81 C 780.07 300.80 777.19 312.95 782.64 321.39 C 784.89 324.87 788.58 327.01 792.31 328.59 C 809.11 335.90 824.33 346.76 836.76 360.22 C 844.51 368.54 851.27 377.95 855.44 388.60 C 862.79 406.81 863.70 427.95 856.25 446.28 C 850.08 461.07 837.36 472.37 823.04 479.10 C 805.24 487.18 785.48 490.53 766.00 490.08 C 742.69 488.73 718.36 482.33 700.98 465.93 C 694.12 459.67 689.83 451.12 687.18 442.33 C 713.47 441.73 739.76 442.81 766.04 442.04 C 770.00 441.92 774.16 442.43 777.91 440.78 C 791.50 435.46 797.89 417.04 790.51 404.45 C 787.11 398.89 781.67 394.97 776.06 391.86 C 761.53 384.03 745.27 378.49 733.31 366.67 C 726.15 359.81 719.99 351.70 716.32 342.44 C 713.83 336.28 712.80 329.65 712.14 323.07 C 711.78 319.63 712.36 316.19 713.25 312.87 C 696.29 313.04 679.33 312.79 662.38 313.07 C 658.31 334.19 654.01 355.27 650.10 376.43 C 628.10 376.62 606.11 376.52 584.11 376.51 C 587.98 355.30 592.23 334.16 596.29 312.99 C 577.97 312.97 559.65 312.75 541.34 313.11 C 537.63 334.32 533.39 355.43 529.17 376.55 C 507.15 376.56 485.13 376.53 463.11 376.54 C 466.03 363.99 468.87 351.42 471.69 338.85 C 461.98 350.95 453.29 363.85 444.11 376.36 C 404.84 376.70 365.56 376.50 326.29 376.50 C 323.47 363.31 321.29 349.94 317.49 336.97 C 314.06 350.11 310.59 363.23 307.24 376.39 C 285.83 376.69 264.42 376.47 243.01 376.52 C 252.48 332.54 261.82 288.52 271.62 244.61 C 300.66 244.83 329.71 244.35 358.75 244.87 C 366.22 287.31 373.96 329.69 381.73 372.07 C 387.77 362.86 392.90 353.04 398.58 343.59 C 417.75 310.58 436.97 277.61 456.24 244.66 C 549.31 244.64 642.38 244.62 735.45 244.68 C 733.44 253.54 731.66 262.45 729.87 271.36 C 736.75 264.68 743.29 257.30 752.01 252.94 Z" />
<path fill="#3f78b1" opacity="1.00" d=" M 241.22 390.70 C 262.55 390.40 283.89 390.67 305.23 390.64 C 303.67 394.68 304.23 399.77 300.82 402.91 C 279.78 404.03 258.62 403.71 237.56 402.95 C 238.77 398.86 240.07 394.81 241.22 390.70 Z" />
<path fill="#3f78b1" opacity="1.00" d=" M 330.31 390.65 C 365.07 390.63 399.84 390.44 434.60 390.69 C 431.96 395.10 428.91 399.23 425.86 403.35 C 394.56 403.49 363.26 403.41 331.96 403.39 C 331.29 399.16 330.81 394.90 330.31 390.65 Z" />
<path fill="#3f78b1" opacity="1.00" d=" M 457.82 402.99 C 459.14 398.87 460.25 394.68 461.70 390.61 C 483.01 390.59 504.32 390.59 525.63 390.66 C 525.15 394.89 524.52 399.11 523.86 403.32 C 501.85 403.23 479.81 404.02 457.82 402.99 Z" />
<path fill="#3f78b1" opacity="1.00" d=" M 578.39 403.43 C 579.10 399.15 579.75 394.87 580.63 390.63 C 603.17 390.59 625.72 390.56 648.27 390.65 C 647.06 394.96 645.84 399.26 644.37 403.49 C 622.38 403.39 600.38 403.43 578.39 403.43 Z" />
<path fill="#3f78b1" opacity="1.00" d=" M 687.06 392.11 C 708.51 391.91 729.97 392.03 751.43 392.01 C 748.94 395.84 746.34 399.58 743.83 403.38 C 723.09 403.49 702.36 403.43 681.62 403.28 C 683.41 399.55 685.25 395.83 687.06 392.11 Z" />
<path fill="#3f78b1" opacity="1.00" d=" M 236.17 417.11 C 257.44 416.08 278.76 416.98 300.05 416.71 C 298.90 421.01 297.74 425.31 296.73 429.65 C 275.29 429.71 253.86 429.71 232.43 429.65 C 233.45 425.41 234.34 421.10 236.17 417.11 Z" />
<path fill="#3f78b1" opacity="1.00" d=" M 335.15 416.70 C 362.48 416.74 389.81 416.55 417.14 416.83 C 414.81 421.17 412.56 425.58 409.90 429.74 C 386.27 429.66 362.64 429.64 339.02 429.74 C 337.55 425.45 336.51 421.02 335.15 416.70 Z" />
<path fill="#3f78b1" opacity="1.00" d=" M 456.13 416.75 C 477.56 416.65 498.99 416.66 520.42 416.76 C 519.88 421.07 519.32 425.38 518.55 429.66 C 497.26 429.75 475.97 429.58 454.68 429.75 C 454.68 425.37 455.57 421.07 456.13 416.75 Z" />
<path fill="#3f78b1" opacity="1.00" d=" M 575.13 416.74 C 597.69 416.65 620.26 416.68 642.82 416.71 C 641.69 421.01 640.53 425.31 639.52 429.64 C 617.51 429.64 595.50 429.85 573.50 429.55 C 573.97 425.27 574.48 421.00 575.13 416.74 Z" />
<path fill="#3f78b1" opacity="1.00" d=" M 680.23 416.75 C 700.75 416.67 721.28 416.62 741.80 416.77 C 742.27 421.23 743.75 425.46 745.20 429.67 C 724.10 429.69 703.00 429.72 681.90 429.65 C 681.49 425.33 681.04 421.01 680.23 416.75 Z" />
<path fill="#3f78b1" opacity="1.00" d=" M 230.46 442.33 C 251.78 442.20 273.10 442.00 294.42 442.43 C 291.87 455.91 288.81 469.29 285.77 482.67 C 264.50 482.85 243.24 482.67 221.98 482.73 C 224.21 469.16 227.69 455.81 230.46 442.33 Z" />
<path fill="#3f78b1" opacity="1.00" d=" M 340.91 442.30 C 360.32 442.15 379.73 442.17 399.14 442.32 C 391.02 456.04 381.62 468.95 373.36 482.59 C 366.12 482.74 358.86 483.43 351.63 482.59 C 347.16 469.42 344.23 455.79 340.91 442.30 Z" />
<path fill="#3f78b1" opacity="1.00" d=" M 450.67 442.41 C 472.62 442.06 494.57 442.09 516.52 442.39 C 513.89 455.87 511.09 469.33 507.93 482.70 C 486.54 482.83 465.14 482.65 443.76 482.87 C 445.85 469.35 448.47 455.92 450.67 442.41 Z" />
<path fill="#3f78b1" opacity="1.00" d=" M 571.52 442.35 C 593.55 442.07 615.58 442.22 637.61 442.28 C 634.58 455.73 631.83 469.25 628.60 482.66 C 606.61 482.76 584.60 482.88 562.61 482.65 C 565.91 469.29 568.49 455.77 571.52 442.35 Z" />
<path fill="#3f78b1" opacity="1.00" d=" M 442.44 500.71 C 452.30 498.56 463.42 499.96 471.26 506.73 C 476.98 511.34 479.78 518.76 479.74 525.98 C 480.03 534.05 477.05 541.92 472.57 548.53 C 464.29 560.22 449.00 566.09 434.97 563.93 C 423.87 562.56 413.32 553.63 412.41 542.09 C 409.62 523.29 423.89 504.13 442.44 500.71 M 445.48 516.63 C 434.36 518.31 427.22 531.46 431.36 541.78 C 434.00 547.01 440.72 548.52 446.07 547.48 C 453.80 546.26 460.09 539.71 461.56 532.11 C 462.45 528.02 461.89 523.25 458.87 520.14 C 455.48 516.61 450.14 515.58 445.48 516.63 Z" />
<path fill="#3f78b1" opacity="1.00" d=" M 599.56 500.71 C 609.58 498.64 620.90 500.26 628.73 507.25 C 633.89 511.66 636.21 518.49 636.59 525.11 C 637.36 542.23 624.93 559.19 608.07 562.92 C 597.58 565.69 585.21 564.65 576.92 557.06 C 569.20 550.52 567.63 539.27 569.88 529.87 C 572.67 515.31 585.12 503.50 599.56 500.71 M 602.50 516.67 C 592.58 518.45 584.94 529.09 587.31 539.07 C 588.21 543.34 591.76 546.77 596.06 547.53 C 609.10 550.69 622.48 535.98 617.67 523.32 C 615.36 517.53 608.19 515.37 602.50 516.67 Z" />
<path fill="#3f78b1" opacity="1.00" d=" M 247.57 501.36 C 253.30 501.27 259.02 501.31 264.75 501.33 C 268.74 521.81 272.67 542.32 276.23 562.88 C 270.49 562.90 264.76 562.89 259.02 562.86 C 258.47 559.85 258.01 556.82 257.27 553.85 C 250.28 554.03 243.30 553.83 236.32 554.04 C 234.55 557.02 232.85 560.04 230.90 562.91 C 224.36 562.82 217.82 562.88 211.28 562.74 C 223.38 542.28 235.31 521.72 247.57 501.36 M 242.52 540.98 C 247.05 540.90 251.57 541.31 256.11 541.33 C 255.07 535.21 254.06 529.09 253.18 522.95 C 248.67 528.25 246.04 534.97 242.52 540.98 Z" />
<path fill="#3f78b1" opacity="1.00" d=" M 295.38 501.33 C 301.25 501.28 307.13 501.32 313.00 501.31 C 311.25 514.97 306.71 528.19 306.03 542.01 C 305.78 544.11 307.16 546.12 309.07 546.92 C 313.12 548.73 318.25 547.47 321.09 544.07 C 323.26 541.73 324.12 538.58 324.68 535.52 C 327.06 524.14 329.27 512.73 331.51 501.32 C 337.48 501.31 343.46 501.28 349.44 501.33 C 346.73 514.03 344.41 526.81 341.72 539.51 C 340.32 545.88 337.51 552.17 332.66 556.66 C 324.22 564.00 311.77 566.55 301.21 562.72 C 296.48 560.93 291.82 557.86 289.76 553.04 C 287.04 547.25 287.22 540.58 288.66 534.47 C 290.83 523.41 293.18 512.38 295.38 501.33 Z" />
<path fill="#3f78b1" opacity="1.00" d=" M 358.24 501.32 C 376.47 501.29 394.71 501.32 412.95 501.30 C 411.77 506.88 410.64 512.48 409.34 518.03 C 403.17 517.95 397.00 518.03 390.83 517.99 C 388.13 532.98 384.79 547.85 382.15 562.85 C 376.16 562.88 370.18 562.93 364.20 562.88 C 367.30 547.93 370.21 532.95 373.29 518.01 C 367.21 517.99 361.12 518.01 355.03 517.99 C 355.97 512.40 357.07 506.85 358.24 501.32 Z" />
<path fill="#3f78b1" opacity="1.00" d=" M 495.45 501.32 C 499.83 501.31 504.22 501.30 508.62 501.34 C 513.34 511.20 518.14 521.02 523.31 530.65 C 530.52 522.74 537.62 514.73 544.90 506.88 C 546.95 504.68 548.93 501.97 552.11 501.47 C 556.62 500.65 561.21 501.60 565.75 501.31 C 561.49 521.79 557.17 542.25 553.54 562.85 C 547.54 562.84 541.54 562.99 535.54 562.83 C 537.57 552.59 540.02 542.43 541.61 532.11 C 536.48 536.84 532.03 542.22 527.50 547.51 C 523.55 548.23 519.40 547.84 515.38 547.85 C 512.86 542.46 509.94 537.27 507.23 531.98 C 504.35 542.11 502.94 552.58 500.52 562.82 C 494.72 562.87 488.91 562.93 483.12 562.85 C 487.12 542.32 491.21 521.80 495.45 501.32 Z" />
<path fill="#3f78b1" opacity="1.00" d=" M 648.16 501.31 C 666.38 501.34 684.60 501.24 702.83 501.35 C 701.72 506.87 700.51 512.38 699.51 517.92 C 693.35 518.06 687.19 517.97 681.03 518.00 C 677.76 532.91 674.93 547.92 671.86 562.87 C 666.06 562.82 660.26 562.96 654.46 562.84 C 656.79 547.80 660.36 532.99 663.01 518.00 C 656.90 517.99 650.79 518.00 644.67 517.98 C 645.74 512.41 646.95 506.86 648.16 501.31 Z" />
<path fill="#3f78b1" opacity="1.00" d=" M 712.29 501.33 C 718.13 501.31 723.98 501.27 729.83 501.36 C 725.84 521.87 721.70 542.36 717.53 562.85 C 711.72 562.87 705.91 562.93 700.10 562.87 C 703.78 542.29 708.07 521.81 712.29 501.33 Z" />
<path fill="#3f78b1" opacity="1.00" d=" M 737.00 501.29 C 742.89 501.33 748.78 501.24 754.68 501.46 C 756.63 513.36 758.08 525.35 760.60 537.16 C 768.04 525.55 773.66 512.86 781.19 501.29 C 787.54 501.33 793.88 501.27 800.23 501.41 C 789.11 522.08 776.96 542.20 765.41 562.63 C 759.54 562.64 753.37 563.33 747.69 562.57 C 744.43 542.10 740.62 521.71 737.00 501.29 Z" />
<path fill="#3f78b1" opacity="1.00" d=" M 808.13 501.30 C 822.10 501.32 836.07 501.31 850.04 501.30 C 849.02 506.10 848.03 510.92 846.94 515.71 C 838.82 515.67 830.71 515.71 822.60 515.66 C 822.01 518.59 821.36 521.51 821.02 524.49 C 828.28 524.43 835.55 524.54 842.82 524.63 C 841.95 529.38 841.06 534.14 840.21 538.90 C 832.82 538.96 825.44 539.01 818.05 539.00 C 817.42 542.11 816.86 545.23 816.33 548.36 C 824.66 548.44 832.99 548.41 841.33 548.51 C 840.49 553.28 839.60 558.05 838.76 562.82 C 824.48 562.97 810.20 562.91 795.92 562.88 C 799.58 542.27 803.85 521.78 808.13 501.30 Z" />
</g>
</svg>
