<?xml version="1.0" encoding="UTF-8" ?>
<!DOCTYPE svg PUBLIC "-//W3C//DTD SVG 1.1//EN" "http://www.w3.org/Graphics/SVG/1.1/DTD/svg11.dtd">
<svg width="794pt" height="842pt" viewBox="0 0 794 842" version="1.1" xmlns="http://www.w3.org/2000/svg">
<g id="#142735ff">
</g>
<g id="#fefefeff">
<path fill="#fefefe" opacity="1.00" d=" M 377.40 28.52 C 408.49 26.86 439.97 27.47 470.43 34.49 C 512.51 43.64 553.02 61.30 586.96 88.05 C 619.59 113.55 646.45 146.44 664.08 183.96 C 681.58 219.43 690.16 258.74 692.74 298.04 C 693.58 324.20 693.64 350.65 688.45 376.42 C 683.24 402.41 675.66 428.13 663.96 451.99 C 642.71 497.30 612.22 537.36 581.84 576.83 C 554.38 612.08 526.80 647.24 499.99 683.00 C 466.31 728.54 433.99 775.13 404.36 823.43 C 403.90 824.88 402.10 824.88 401.64 823.43 C 355.01 747.32 301.53 675.71 246.45 605.58 C 205.19 552.01 161.19 499.07 134.84 436.13 C 120.87 400.48 112.84 362.36 112.91 324.00 C 111.54 276.44 120.76 228.32 141.23 185.28 C 171.58 120.14 229.41 68.70 297.34 45.47 C 322.95 35.69 350.20 31.08 377.40 28.52 M 385.45 147.56 C 367.77 149.40 350.34 153.97 334.05 161.07 C 291.28 179.70 256.81 216.48 241.56 260.62 C 223.12 310.92 230.88 369.76 261.04 413.95 C 274.28 436.14 294.26 453.54 316.22 466.78 C 343.04 482.10 373.93 491.43 405.01 490.07 C 460.81 490.08 516.38 460.51 545.76 412.76 C 559.51 391.94 568.72 368.11 572.60 343.47 C 579.13 297.86 567.20 249.68 538.68 213.30 C 503.50 166.94 443.40 140.88 385.45 147.56 Z" />
</g>
</svg>
